<svg xml:space="preserve" viewBox="19.52 19.04 24.96 26.400000000000002" y="0px" x="0px" version="1.1" xmlns:xlink="http://www.w3.org/1999/xlink" xmlns="http://www.w3.org/2000/svg" style="max-height: 500px" width="24.96" height="26.400000000000002"><path d="M32,42.0830078c-0.4042969,0-0.7695313-0.2441406-0.9238281-0.6181641l-1.359375-3.2871094  c-0.7236328-1.7509766-2.1435547-3.1708984-3.8945313-3.8945313l-3.2871094-1.359375  C22.1611328,32.7695313,21.9169922,32.4042969,21.9169922,32s0.2441406-0.7695313,0.6181641-0.9238281l3.2871094-1.359375  c1.7509766-0.7236328,3.1708984-2.1435547,3.8945313-3.8945313l1.359375-3.2871094  C31.2304688,22.1611328,31.5957031,21.9169922,32,21.9169922s0.7695313,0.2441406,0.9238281,0.6181641l1.359375,3.2871094  c0.7236328,1.7509766,2.1435547,3.1708984,3.8945313,3.8945313l0,0l3.2871094,1.359375  C41.8388672,31.2304688,42.0830078,31.5957031,42.0830078,32s-0.2441406,0.7695313-0.6181641,0.9238281l-3.2871094,1.359375  c-1.7509766,0.7236328-3.1708984,2.1435547-3.8945313,3.8945313l-1.359375,3.2871094  C32.7695313,41.8388672,32.4042969,42.0830078,32,42.0830078z M25.5341797,32l1.0517578,0.4355469  c2.2392578,0.9248047,4.0537109,2.7392578,4.9785156,4.9785156L32,38.4658203l0.4355469-1.0517578  c0.9248047-2.2392578,2.7392578-4.0537109,4.9785156-4.9785156L38.4658203,32l-1.0517578-0.4355469  c-2.2392578-0.9248047-4.0537109-2.7392578-4.9785156-4.9785156L32,25.5341797l-0.4355469,1.0517578  c-0.9248047,2.2392578-2.7392578,4.0537109-4.9785156,4.9785156L25.5341797,32z"/><path d="M26.2666016,26.7666016c-0.1279297,0-0.2558594-0.0488281-0.3535156-0.1464844l-1.6601563-1.6601563  c-0.1953125-0.1953125-0.1953125-0.5117188,0-0.7070313s0.5117188-0.1953125,0.7070313,0l1.6601563,1.6601563  c0.1953125,0.1953125,0.1953125,0.5117188,0,0.7070313C26.5224609,26.7177734,26.3945313,26.7666016,26.2666016,26.7666016z"/><path d="M39.3935547,39.8935547c-0.1279297,0-0.2558594-0.0488281-0.3535156-0.1464844l-1.6601563-1.6601563  c-0.1953125-0.1953125-0.1953125-0.5117188,0-0.7070313s0.5117188-0.1953125,0.7070313,0l1.6601563,1.6601563  c0.1953125,0.1953125,0.1953125,0.5117188,0,0.7070313C39.6494141,39.8447266,39.5214844,39.8935547,39.3935547,39.8935547z"/><path d="M37.7333984,26.7666016c-0.1279297,0-0.2558594-0.0488281-0.3535156-0.1464844  c-0.1953125-0.1953125-0.1953125-0.5117188,0-0.7070313l1.6601563-1.6601563c0.1953125-0.1953125,0.5117188-0.1953125,0.7070313,0  s0.1953125,0.5117188,0,0.7070313l-1.6601563,1.6601563C37.9892578,26.7177734,37.8613281,26.7666016,37.7333984,26.7666016z"/><path d="M24.6064453,39.8935547c-0.1279297,0-0.2558594-0.0488281-0.3535156-0.1464844  c-0.1953125-0.1953125-0.1953125-0.5117188,0-0.7070313l1.6601563-1.6601563c0.1953125-0.1953125,0.5117188-0.1953125,0.7070313,0  s0.1953125,0.5117188,0,0.7070313l-1.6601563,1.6601563C24.8623047,39.8447266,24.734375,39.8935547,24.6064453,39.8935547z"/><text font-family="'Helvetica Neue', Helvetica, Arial-Unicode, Arial, Sans-serif" font-weight="bold" font-size="5px" fill="#000000" y="79" x="0">Created by Whales Factory</text><text font-family="'Helvetica Neue', Helvetica, Arial-Unicode, Arial, Sans-serif" font-weight="bold" font-size="5px" fill="#000000" y="84" x="0">from the Noun Project</text></svg>